# Blender v2.90.1 OBJ File: ''
# www.blender.org
mtllib sphere.mtl
o Sphere_Sphere.001
v 0.000000 0.707107 -0.707107
v 0.000000 0.382683 -0.923880
v 0.000000 -0.382684 -0.923880
v 0.000000 -0.923880 -0.382683
v 0.146447 0.923880 -0.353553
v 0.270598 0.707107 -0.653281
v 0.353553 0.382683 -0.853553
v 0.382683 -0.000000 -0.923880
v 0.353553 -0.382684 -0.853553
v 0.270598 -0.707107 -0.653281
v 0.146447 -0.923880 -0.353553
v 0.270598 0.923880 -0.270598
v 0.500000 0.707107 -0.500000
v 0.653281 0.382683 -0.653281
v 0.707107 -0.000000 -0.707107
v 0.653281 -0.382684 -0.653281
v 0.500000 -0.707107 -0.500000
v 0.270598 -0.923880 -0.270598
v 0.353553 0.923880 -0.146447
v 0.653281 0.707107 -0.270598
v 0.853553 0.382683 -0.353553
v 0.923879 -0.000000 -0.382683
v 0.853553 -0.382684 -0.353553
v 0.653281 -0.707107 -0.270598
v 0.353553 -0.923880 -0.146447
v 0.382683 0.923880 -0.000000
v 0.707107 0.707107 -0.000000
v 0.923879 0.382683 -0.000000
v 1.000000 -0.000000 -0.000000
v 0.923879 -0.382684 -0.000000
v 0.707107 -0.707107 -0.000000
v 0.382683 -0.923880 -0.000000
v 0.353553 0.923880 0.146446
v 0.653281 0.707107 0.270598
v 0.853553 0.382683 0.353553
v 0.923879 -0.000000 0.382683
v 0.853553 -0.382684 0.353553
v 0.653281 -0.707107 0.270598
v 0.353553 -0.923880 0.146446
v 0.270598 0.923880 0.270598
v 0.500000 0.707107 0.500000
v 0.653281 0.382683 0.653281
v 0.707106 -0.000000 0.707107
v 0.653281 -0.382684 0.653281
v 0.500000 -0.707107 0.500000
v 0.270598 -0.923880 0.270598
v 0.146446 0.923880 0.353553
v 0.270598 0.707107 0.653281
v 0.353553 0.382683 0.853553
v 0.382683 -0.000000 0.923879
v 0.353553 -0.382684 0.853553
v 0.270598 -0.707107 0.653281
v 0.146446 -0.923880 0.353553
v -0.000000 0.923880 0.382683
v -0.000000 0.707107 0.707106
v -0.000000 0.382683 0.923879
v -0.000000 -0.000000 1.000000
v -0.000000 -0.382684 0.923879
v -0.000000 -0.707107 0.707106
v -0.000000 -0.923880 0.382683
v -0.146447 0.923880 0.353553
v -0.270598 0.707107 0.653281
v -0.353554 0.382683 0.853553
v -0.382684 -0.000000 0.923879
v -0.353554 -0.382684 0.853553
v -0.270598 -0.707107 0.653281
v -0.146447 -0.923880 0.353553
v -0.270598 0.923880 0.270598
v -0.500000 0.707107 0.499999
v -0.653282 0.382683 0.653281
v -0.707107 -0.000000 0.707106
v -0.653282 -0.382684 0.653281
v -0.500000 -0.707107 0.499999
v -0.270598 -0.923880 0.270598
v -0.353553 0.923880 0.146446
v -0.653281 0.707107 0.270597
v -0.853553 0.382683 0.353553
v -0.923879 -0.000000 0.382683
v -0.853553 -0.382684 0.353553
v -0.653281 -0.707107 0.270597
v -0.353553 -0.923880 0.146446
v -0.382683 0.923880 -0.000000
v -0.707106 0.707107 -0.000000
v -0.923879 0.382683 -0.000001
v -1.000000 -0.000000 -0.000001
v -0.923879 -0.382684 -0.000001
v -0.707106 -0.707107 -0.000000
v -0.382683 -0.923880 -0.000000
v -0.353553 0.923880 -0.146447
v -0.653281 0.707107 -0.270598
v -0.853553 0.382683 -0.353554
v -0.923879 -0.000000 -0.382684
v -0.853553 -0.382684 -0.353554
v -0.653281 -0.707107 -0.270598
v -0.353553 -0.923880 -0.146447
v -0.270598 0.923880 -0.270598
v -0.499999 0.707107 -0.500000
v -0.653281 0.382683 -0.653282
v -0.707106 -0.000000 -0.707107
v -0.653281 -0.382684 -0.653282
v -0.499999 -0.707107 -0.500000
v -0.270598 -0.923880 -0.270598
v -0.146446 0.923880 -0.353553
v -0.270598 0.707107 -0.653281
v -0.353553 0.382683 -0.853553
v -0.382683 -0.000000 -0.923880
v -0.353553 -0.382684 -0.853553
v -0.270598 -0.707107 -0.653281
v -0.146446 -0.923880 -0.353553
v -0.000000 1.000000 -0.000000
v 0.000000 0.923880 -0.382683
v 0.000001 -0.000000 -1.000000
v 0.000000 -0.707107 -0.707106
v 0.000000 -1.000000 -0.000000
vn 0.1915 0.1915 -0.9626
vn 0.1098 0.8264 -0.5522
vn 0.1098 -0.8264 -0.5522
vn 0.1915 -0.1915 -0.9626
vn 0.1632 0.5481 -0.8203
vn 0.0388 0.9800 -0.1949
vn 0.0388 -0.9800 -0.1949
vn 0.1632 -0.5481 -0.8203
vn 0.3128 -0.8264 -0.4681
vn 0.5453 -0.1915 -0.8161
vn 0.4647 0.5481 -0.6954
vn 0.1104 0.9800 -0.1653
vn 0.1104 -0.9800 -0.1653
vn 0.4647 -0.5481 -0.6954
vn 0.5453 0.1915 -0.8161
vn 0.3128 0.8264 -0.4681
vn 0.1653 0.9800 -0.1104
vn 0.1653 -0.9800 -0.1104
vn 0.6954 -0.5481 -0.4647
vn 0.8161 0.1915 -0.5453
vn 0.4681 0.8264 -0.3128
vn 0.4681 -0.8264 -0.3128
vn 0.8161 -0.1915 -0.5453
vn 0.6954 0.5481 -0.4647
vn 0.8203 -0.5481 -0.1632
vn 0.9626 0.1915 -0.1915
vn 0.5522 0.8264 -0.1098
vn 0.5522 -0.8264 -0.1098
vn 0.9626 -0.1915 -0.1915
vn 0.8203 0.5481 -0.1632
vn 0.1949 0.9800 -0.0388
vn 0.1949 -0.9800 -0.0388
vn 0.5522 -0.8264 0.1098
vn 0.9626 -0.1915 0.1915
vn 0.8203 0.5481 0.1632
vn 0.1949 0.9800 0.0388
vn 0.1949 -0.9800 0.0388
vn 0.8203 -0.5481 0.1632
vn 0.9626 0.1915 0.1915
vn 0.5522 0.8264 0.1098
vn 0.8161 -0.1915 0.5453
vn 0.6954 0.5481 0.4647
vn 0.1653 0.9800 0.1104
vn 0.1653 -0.9800 0.1104
vn 0.6954 -0.5481 0.4647
vn 0.8161 0.1915 0.5453
vn 0.4681 0.8264 0.3128
vn 0.4681 -0.8264 0.3128
vn 0.1104 -0.9800 0.1653
vn 0.4647 -0.5481 0.6954
vn 0.5453 0.1915 0.8161
vn 0.3128 0.8264 0.4681
vn 0.3128 -0.8264 0.4681
vn 0.5453 -0.1915 0.8161
vn 0.4647 0.5481 0.6954
vn 0.1104 0.9800 0.1653
vn 0.1915 0.1915 0.9626
vn 0.1098 0.8264 0.5522
vn 0.1098 -0.8264 0.5522
vn 0.1915 -0.1915 0.9626
vn 0.1632 0.5481 0.8203
vn 0.0388 0.9800 0.1949
vn 0.0388 -0.9800 0.1949
vn 0.1632 -0.5481 0.8203
vn -0.1098 -0.8264 0.5522
vn -0.1915 -0.1915 0.9626
vn -0.1632 0.5481 0.8203
vn -0.0388 0.9800 0.1949
vn -0.0388 -0.9800 0.1949
vn -0.1632 -0.5481 0.8203
vn -0.1915 0.1915 0.9626
vn -0.1098 0.8264 0.5522
vn -0.4647 0.5481 0.6954
vn -0.1104 0.9800 0.1653
vn -0.1104 -0.9800 0.1653
vn -0.4647 -0.5481 0.6954
vn -0.5453 0.1915 0.8161
vn -0.3128 0.8264 0.4681
vn -0.3128 -0.8264 0.4681
vn -0.5453 -0.1915 0.8161
vn -0.1653 -0.9800 0.1104
vn -0.6954 -0.5481 0.4647
vn -0.8161 0.1915 0.5453
vn -0.4681 0.8264 0.3128
vn -0.4681 -0.8264 0.3128
vn -0.8161 -0.1915 0.5453
vn -0.6954 0.5481 0.4647
vn -0.1653 0.9800 0.1104
vn -0.5522 0.8264 0.1098
vn -0.5522 -0.8264 0.1098
vn -0.9626 -0.1915 0.1915
vn -0.8203 0.5481 0.1632
vn -0.1949 0.9800 0.0388
vn -0.1949 -0.9800 0.0388
vn -0.8203 -0.5481 0.1632
vn -0.9626 0.1915 0.1915
vn -0.5522 -0.8264 -0.1098
vn -0.9626 -0.1915 -0.1915
vn -0.8203 0.5481 -0.1632
vn -0.1949 0.9800 -0.0388
vn -0.1949 -0.9800 -0.0388
vn -0.8203 -0.5481 -0.1632
vn -0.9626 0.1915 -0.1915
vn -0.5522 0.8264 -0.1098
vn -0.1653 0.9800 -0.1104
vn -0.1653 -0.9800 -0.1104
vn -0.6954 -0.5481 -0.4647
vn -0.8161 0.1915 -0.5453
vn -0.4681 0.8264 -0.3128
vn -0.4681 -0.8264 -0.3128
vn -0.8161 -0.1915 -0.5453
vn -0.6954 0.5481 -0.4647
vn -0.4647 -0.5481 -0.6954
vn -0.5453 0.1915 -0.8161
vn -0.3128 0.8264 -0.4681
vn -0.3128 -0.8264 -0.4681
vn -0.5453 -0.1915 -0.8161
vn -0.4647 0.5481 -0.6954
vn -0.1104 0.9800 -0.1653
vn -0.1104 -0.9800 -0.1653
vn -0.1098 -0.8264 -0.5522
vn -0.1915 -0.1915 -0.9626
vn -0.1632 0.5481 -0.8203
vn -0.0388 0.9800 -0.1949
vn -0.0388 -0.9800 -0.1949
vn -0.1632 -0.5481 -0.8203
vn -0.1915 0.1915 -0.9626
vn -0.1098 0.8264 -0.5522
usemtl None
s off
f 112//1 7//1 8//1
f 111//2 6//2 1//2
f 113//3 11//3 4//3
f 112//4 9//4 3//4
f 1//5 7//5 2//5
f 111//6 110//6 5//6
f 114//7 4//7 11//7
f 113//8 9//8 10//8
f 10//9 18//9 11//9
f 8//10 16//10 9//10
f 6//11 14//11 7//11
f 5//12 110//12 12//12
f 114//13 11//13 18//13
f 9//14 17//14 10//14
f 7//15 15//15 8//15
f 5//16 13//16 6//16
f 12//17 110//17 19//17
f 114//18 18//18 25//18
f 16//19 24//19 17//19
f 15//20 21//20 22//20
f 13//21 19//21 20//21
f 18//22 24//22 25//22
f 15//23 23//23 16//23
f 13//24 21//24 14//24
f 23//25 31//25 24//25
f 21//26 29//26 22//26
f 20//27 26//27 27//27
f 25//28 31//28 32//28
f 22//29 30//29 23//29
f 20//30 28//30 21//30
f 19//31 110//31 26//31
f 114//32 25//32 32//32
f 31//33 39//33 32//33
f 29//34 37//34 30//34
f 28//35 34//35 35//35
f 26//36 110//36 33//36
f 114//37 32//37 39//37
f 30//38 38//38 31//38
f 28//39 36//39 29//39
f 27//40 33//40 34//40
f 36//41 44//41 37//41
f 34//42 42//42 35//42
f 33//43 110//43 40//43
f 114//44 39//44 46//44
f 37//45 45//45 38//45
f 35//46 43//46 36//46
f 34//47 40//47 41//47
f 38//48 46//48 39//48
f 114//49 46//49 53//49
f 44//50 52//50 45//50
f 43//51 49//51 50//51
f 41//52 47//52 48//52
f 46//53 52//53 53//53
f 43//54 51//54 44//54
f 41//55 49//55 42//55
f 40//56 110//56 47//56
f 49//57 57//57 50//57
f 48//58 54//58 55//58
f 53//59 59//59 60//59
f 50//60 58//60 51//60
f 48//61 56//61 49//61
f 47//62 110//62 54//62
f 114//63 53//63 60//63
f 51//64 59//64 52//64
f 60//65 66//65 67//65
f 57//66 65//66 58//66
f 55//67 63//67 56//67
f 54//68 110//68 61//68
f 114//69 60//69 67//69
f 58//70 66//70 59//70
f 56//71 64//71 57//71
f 55//72 61//72 62//72
f 62//73 70//73 63//73
f 61//74 110//74 68//74
f 114//75 67//75 74//75
f 66//76 72//76 73//76
f 64//77 70//77 71//77
f 61//78 69//78 62//78
f 66//79 74//79 67//79
f 64//80 72//80 65//80
f 114//81 74//81 81//81
f 72//82 80//82 73//82
f 70//83 78//83 71//83
f 69//84 75//84 76//84
f 73//85 81//85 74//85
f 71//86 79//86 72//86
f 70//87 76//87 77//87
f 68//88 110//88 75//88
f 76//89 82//89 83//89
f 81//90 87//90 88//90
f 78//91 86//91 79//91
f 76//92 84//92 77//92
f 75//93 110//93 82//93
f 114//94 81//94 88//94
f 80//95 86//95 87//95
f 77//96 85//96 78//96
f 87//97 95//97 88//97
f 85//98 93//98 86//98
f 83//99 91//99 84//99
f 82//100 110//100 89//100
f 114//101 88//101 95//101
f 87//102 93//102 94//102
f 85//103 91//103 92//103
f 83//104 89//104 90//104
f 89//105 110//105 96//105
f 114//106 95//106 102//106
f 93//107 101//107 94//107
f 92//108 98//108 99//108
f 90//109 96//109 97//109
f 94//110 102//110 95//110
f 92//111 100//111 93//111
f 90//112 98//112 91//112
f 100//113 108//113 101//113
f 98//114 106//114 99//114
f 97//115 103//115 104//115
f 101//116 109//116 102//116
f 99//117 107//117 100//117
f 97//118 105//118 98//118
f 96//119 110//119 103//119
f 114//120 102//120 109//120
f 108//121 4//121 109//121
f 106//122 3//122 107//122
f 105//123 1//123 2//123
f 103//124 110//124 111//124
f 114//125 109//125 4//125
f 108//126 3//126 113//126
f 106//127 2//127 112//127
f 103//128 1//128 104//128
f 112//1 2//1 7//1
f 111//2 5//2 6//2
f 113//3 10//3 11//3
f 112//4 8//4 9//4
f 1//5 6//5 7//5
f 113//8 3//8 9//8
f 10//9 17//9 18//9
f 8//10 15//10 16//10
f 6//11 13//11 14//11
f 9//14 16//14 17//14
f 7//15 14//15 15//15
f 5//16 12//16 13//16
f 16//19 23//19 24//19
f 15//20 14//20 21//20
f 13//21 12//21 19//21
f 18//22 17//22 24//22
f 15//23 22//23 23//23
f 13//24 20//24 21//24
f 23//25 30//25 31//25
f 21//26 28//26 29//26
f 20//27 19//27 26//27
f 25//28 24//28 31//28
f 22//29 29//29 30//29
f 20//30 27//30 28//30
f 31//33 38//33 39//33
f 29//34 36//34 37//34
f 28//35 27//35 34//35
f 30//38 37//38 38//38
f 28//39 35//39 36//39
f 27//40 26//40 33//40
f 36//41 43//41 44//41
f 34//42 41//42 42//42
f 37//45 44//45 45//45
f 35//46 42//46 43//46
f 34//47 33//47 40//47
f 38//48 45//48 46//48
f 44//50 51//50 52//50
f 43//51 42//51 49//51
f 41//52 40//52 47//52
f 46//53 45//53 52//53
f 43//54 50//54 51//54
f 41//55 48//55 49//55
f 49//57 56//57 57//57
f 48//58 47//58 54//58
f 53//59 52//59 59//59
f 50//60 57//60 58//60
f 48//61 55//61 56//61
f 51//64 58//64 59//64
f 60//65 59//65 66//65
f 57//66 64//66 65//66
f 55//67 62//67 63//67
f 58//70 65//70 66//70
f 56//71 63//71 64//71
f 55//72 54//72 61//72
f 62//73 69//73 70//73
f 66//76 65//76 72//76
f 64//77 63//77 70//77
f 61//78 68//78 69//78
f 66//79 73//79 74//79
f 64//80 71//80 72//80
f 72//82 79//82 80//82
f 70//83 77//83 78//83
f 69//84 68//84 75//84
f 73//85 80//85 81//85
f 71//86 78//86 79//86
f 70//87 69//87 76//87
f 76//89 75//89 82//89
f 81//90 80//90 87//90
f 78//91 85//91 86//91
f 76//92 83//92 84//92
f 80//95 79//95 86//95
f 77//96 84//96 85//96
f 87//97 94//97 95//97
f 85//98 92//98 93//98
f 83//99 90//99 91//99
f 87//102 86//102 93//102
f 85//103 84//103 91//103
f 83//104 82//104 89//104
f 93//107 100//107 101//107
f 92//108 91//108 98//108
f 90//109 89//109 96//109
f 94//110 101//110 102//110
f 92//111 99//111 100//111
f 90//112 97//112 98//112
f 100//113 107//113 108//113
f 98//114 105//114 106//114
f 97//115 96//115 103//115
f 101//116 108//116 109//116
f 99//117 106//117 107//117
f 97//118 104//118 105//118
f 108//121 113//121 4//121
f 106//122 112//122 3//122
f 105//123 104//123 1//123
f 108//126 107//126 3//126
f 106//127 105//127 2//127
f 103//128 111//128 1//128
